<svg xmlns="http://www.w3.org/2000/svg" xmlns:xlink="http://www.w3.org/1999/xlink" width="132.176" height="16.52" viewBox="0 0 132.176 16.52">
  <defs>
    <linearGradient id="linear-gradient" x1="0.291" y1="-0.603" x2="1.069" y2="3.987" gradientUnits="objectBoundingBox">
      <stop offset="0" stop-color="#66c1bf"/>
      <stop offset="0.7" stop-color="#004f9f"/>
      <stop offset="1" stop-color="#1d1d1b"/>
    </linearGradient>
    <linearGradient id="linear-gradient-2" x1="-0.102" y1="-0.57" x2="0.684" y2="0.981" xlink:href="#linear-gradient"/>
  </defs>
  <g id="Group_16900" data-name="Group 16900" transform="translate(-146.769 -263.37)">
    <g id="Group_16866" data-name="Group 16866" transform="translate(146.769 263.37)">
      <path id="Path_20129" data-name="Path 20129" d="M146.769,264.575v2.086h10.966a1.205,1.205,0,0,0,1.205-1.205v-.881a1.205,1.205,0,0,0-1.205-1.205h-9.761A1.205,1.205,0,0,0,146.769,264.575Z" transform="translate(-146.769 -263.37)" fill="url(#linear-gradient)"/>
      <path id="Path_20130" data-name="Path 20130" d="M149.912,297.688v-3.427h6.372a1.205,1.205,0,0,0,1.205-1.205v-.733a1.205,1.205,0,0,0-1.205-1.205h-9.516v8.626a1.205,1.205,0,0,0,1.205,1.205h9.761a1.205,1.205,0,0,0,1.205-1.205v-.851a1.205,1.205,0,0,0-1.205-1.205Z" transform="translate(-146.769 -284.43)" fill="url(#linear-gradient-2)"/>
    </g>
    <path id="Path_20131" data-name="Path 20131" d="M214.581,263.37h-3.687v16.52h10.73V276.6h-7.043Z" transform="translate(-48.668)" fill="#004f9f"/>
    <path id="Path_20132" data-name="Path 20132" d="M275.826,272.445l-4.254-9.076h-4.987v16.52h3.687v-10.4l4.443,9.028h2.2l4.467-9.028v10.4h3.687V263.37H280.1Z" transform="translate(-90.936)" fill="#004f9f"/>
    <g id="Group_16867" data-name="Group 16867" transform="translate(196.207 263.37)">
      <path id="Path_20133" data-name="Path 20133" d="M498.126,275.169l-7.838-10.282h-3.336v15.972h3.564V270.85l7.609,10.008h3.564V264.886h-3.564Z" transform="translate(-454.392 -264.521)" fill="#004f9f"/>
      <path id="Path_20134" data-name="Path 20134" d="M359.764,270.122a11.48,11.48,0,0,1-2.9-.971,1.265,1.265,0,0,1-.629-1.108,1.379,1.379,0,0,1,.515-1.12,2.149,2.149,0,0,1,1.405-.423,7.033,7.033,0,0,1,4.3,1.577l1.8-2.6a8.571,8.571,0,0,0-2.787-1.554,9.824,9.824,0,0,0-3.2-.548,6.572,6.572,0,0,0-4.078,1.234,4.135,4.135,0,0,0-1.634,3.507,4.072,4.072,0,0,0,1.291,3.336,10.225,10.225,0,0,0,4.078,1.725,7.776,7.776,0,0,1,2.354.857,1.332,1.332,0,0,1,.594,1.143,1.357,1.357,0,0,1-.56,1.143,2.5,2.5,0,0,1-1.542.423A7.558,7.558,0,0,1,354,274.475l-2.125,2.6a9.81,9.81,0,0,0,6.832,2.81,6.423,6.423,0,0,0,4.239-1.337,4.314,4.314,0,0,0,1.611-3.485,4.149,4.149,0,0,0-1.257-3.267A8.172,8.172,0,0,0,359.764,270.122Z" transform="translate(-351.87 -263.37)" fill="#004f9f"/>
      <path id="Path_20135" data-name="Path 20135" d="M414.605,264.886l-6.9,15.972H411.5l1.485-3.45h6.695l1.485,3.45h3.794l-6.9-15.972Zm-.274,9.391,2.011-4.638,1.988,4.638Z" transform="translate(-394.246 -264.521)" fill="#004f9f"/>
      <path id="Path_20136" data-name="Path 20136" d="M562.673,264.886l-6.9,15.972h3.794l1.485-3.45h6.7l1.485,3.45h3.793l-6.9-15.972Zm-.274,9.391,2.01-4.638,1.988,4.638Z" transform="translate(-506.623 -264.521)" fill="#004f9f"/>
      <path id="Path_20137" data-name="Path 20137" d="M647.222,266.977q-2.285-2.091-6.558-2.091H635.02v15.972h5.461q4.57,0,6.8-2.171a7.852,7.852,0,0,0,2.228-5.9A7.487,7.487,0,0,0,647.222,266.977Zm-2.616,9.494a5.287,5.287,0,0,1-3.759,1.234h-2.263v-9.711h1.988a5.618,5.618,0,0,1,4.034,1.268,4.8,4.8,0,0,1,1.313,3.622A4.686,4.686,0,0,1,644.606,276.471Z" transform="translate(-566.768 -264.521)" fill="#004f9f"/>
    </g>
  </g>
</svg>
